<svg xmlns="http://www.w3.org/2000/svg" viewBox="0 0 153.122 153.122">
  <title>Logo</title>
  <g id="Layer_2" data-name="Layer 2">
    <g id="Layer_10" data-name="Layer 10">
      <path d="M76.561,7A69.561,69.561,0,1,1,7,76.561,69.562,69.562,0,0,1,76.561,7m0-7a76.561,76.561,0,1,0,76.561,76.561A76.648,76.648,0,0,0,76.561,0Z" style="fill: #414042"/>
    </g>
    <g id="Layer_9" data-name="Layer 9">
      <line x1="75.652" y1="36.843" x2="65.448" y2="20.878" style="fill: none;stroke: #414042;stroke-miterlimit: 10;stroke-width: 5px"/>
    </g>
    <g id="Layer_18" data-name="Layer 18">
      <polygon points="21.916 98.445 65.581 20.016 84.564 20.36 133.038 95.669 123.896 112.283 85.448 52.971 51.08 114.692 32.119 114.411 21.916 98.445" style="fill: none;stroke: #414042;stroke-miterlimit: 10;stroke-width: 5px"/>
      <polyline points="32.119 114.411 75.784 35.98 94.74 36.261" style="fill: none;stroke: #414042;stroke-miterlimit: 10;stroke-width: 5px"/>
      <line x1="76.561" y1="69.865" x2="80.897" y2="76.561" style="fill: none;stroke: #414042;stroke-miterlimit: 10;stroke-width: 5px"/>
      <polyline points="94.625 98.021 105.007 113.803 123.897 113.545" style="fill: none;stroke: #414042;stroke-miterlimit: 10;stroke-width: 5px"/>
      <polyline points="61.845 95.359 70.601 108.879 89.487 107.358 98.63 90.744 88.87 75.677 72.163 77.034" style="fill: none;stroke: #414042;stroke-miterlimit: 10;stroke-width: 5px"/>
      <polyline points="88.869 75.678 79.73 92.287 89.487 107.358" style="fill: none;stroke: #414042;stroke-miterlimit: 10;stroke-width: 5px"/>
      <line x1="62.695" y1="93.833" x2="79.73" y2="92.287" style="fill: none;stroke: #414042;stroke-miterlimit: 10;stroke-width: 5px"/>
    </g>
  </g>
</svg>
