<svg version="1" xmlns="http://www.w3.org/2000/svg" width="808" height="808" viewBox="0 0 606.000000 606.000000"><path d="M278.5 1c-59.6 5.3-112.4 25.9-161 62.9-11.8 8.9-41.3 38-50.9 50.1-90.9 114.4-87.7 276.1 7.5 386.5 43.8 50.7 102.8 85.5 168.2 98.9 38.7 8 81.9 8 121.2.1 90.1-18.2 168.8-78.4 210.1-160.7 58.7-117.1 36-257.2-56.6-349.8-23.4-23.4-49.2-42-78.9-56.8-31.9-16-62.5-25.3-97.2-29.7-15-1.9-48.7-2.7-62.4-1.5zm64 27c29.8 4.4 55.6 12.5 83 25.9 59.3 29.2 105.2 76.9 131.8 137.1 61.7 139.9-1.5 303.1-141.5 365.7-62 27.7-133.4 31.4-198.4 10.2C70.8 519.3-8.9 361.2 39.9 215c27.3-81.8 90.9-146.1 172.6-174.6 19.5-6.8 45-12.3 67-14.3 15.2-1.5 46.7-.5 63 1.9z"/><path d="M170 223.8C123 308.2 82.8 380.3 80.8 384l-3.7 6.7 22.3 34.9 22.4 34.9 41.3.7c34 .6 41.6.5 42.4-.6.6-.8 9.5-16.7 20-35.4 14.5-26 19.3-33.8 20.1-32.9.6.7 7.4 10.9 14.9 22.7 7.6 11.8 14.3 22 14.9 22.7 1.7 1.8 82.6-4.9 84-7 .6-.8 4.5-7.6 8.6-15.1s7.7-13.6 8-13.6c.3 0 8.8 12.6 18.9 28l18.4 28h22.2c12.2 0 30.3-.3 40.3-.7l18.1-.6 21-38.3c11.6-21.1 21.1-38.8 21.1-39.3s-44.3-69.7-98.4-153.8L339.3 72.5l-10.4-.7c-5.7-.3-24.6-.8-41.9-1.1l-31.5-.4L170 223.8zM310 84h21.5l16.2 25.3 16.1 25.2-9.6.3c-5.3.2-19.6 0-31.7-.4l-22-.7-15.7-24.7C276.1 95.4 269 83.9 269 83.5c0-.4 4.4-.5 9.8-.2 5.3.4 19.4.7 31.2.7zm-34.5 34.2c8.6 13.6 15.5 25.1 15.3 25.6-1 2.6-165.4 297.2-165.8 297.2-.3 0-7.8-11.4-16.7-25.4l-16.2-25.4 79.5-142.9c43.7-78.5 81.1-145.7 83.1-149.1 1.9-3.5 3.9-6 4.3-5.5.4.4 7.8 11.9 16.5 25.5zm97.6 30.7c.6.6 147.9 229.6 148.2 230.4.4 1-28.7 52.7-29.5 52.5-.5-.2-35-53-76.7-117.3-41.7-64.4-76.3-117-76.7-117-.5 0-32.4 56.6-70.9 125.8l-70 125.9-30-.7c-16.5-.4-30.2-.9-30.4-1-.3-.3 161.5-291.7 165.6-298.4l1.5-2.3 34.2.7c18.7.4 34.4 1 34.7 1.4zm37.5 182.3c38.9 60.1 71.4 110.3 72.2 111.5l1.4 2.3h-64l-16.9-25.8c-9.4-14.1-17.7-26.9-18.7-28.3-1.6-2.6-1.6-2.8 2.2-9.5 2.1-3.8 5.7-10.3 8-14.5l4.1-7.5-21.3-33-21.3-32.9h-5.9c-3.3 0-10.7.4-16.5.8l-10.6.9-6.7-10.2c-3.7-5.6-6.6-10.8-6.4-11.4.5-2.2 28.3-51.6 29-51.6.3 0 32.5 49.2 71.4 109.2zm-105.2-39.8c1.4 2.5 2.6 4.7 2.6 5 0 .3-2.5.6-5.6.6h-5.5l2.7-5c1.5-2.8 2.8-5 3-5 .1 0 1.4 2 2.8 4.4zm25.4 33.8c-5.5 10.1-12.1 22-14.5 26.5-2.8 5.3-5.1 8.3-6.1 8.3s-12.4 1-25.5 2.2c-13 1.1-24 1.9-24.3 1.6-.5-.5 26.7-50.1 28.6-52.1.7-.8 36.8-4.3 47.2-4.6l4.7-.1-10.1 18.2zm38 11.3l15.2 23.4-14.7 26.6c-11.6 21.2-14.8 26.4-15.8 25.3-1-1.1-29.1-44.4-29.7-45.9-.4-.8 28.3-52.9 29.1-52.9.4 0 7.6 10.6 15.9 23.5zm-40.6 60.2l15.4 23.8-26.5 2.2c-14.6 1.3-28.5 2.2-30.8 2l-4.2-.2-15-23c-8.2-12.7-14.5-23.1-14.1-23.3 1.4-.5 49.1-4.9 54.7-5.1l5.1-.1 15.4 23.7z"/></svg>